<?xml version="1.0" encoding="utf-8"?>
<!-- Generator: Adobe Illustrator 25.0.0, SVG Export Plug-In . SVG Version: 6.00 Build 0)  -->
<svg version="1.1" id="Layer_1" xmlns="http://www.w3.org/2000/svg" xmlns:xlink="http://www.w3.org/1999/xlink" x="0px" y="0px"
	 viewBox="0 0 344.5 101.6" style="enable-background:new 0 0 344.5 101.6;" xml:space="preserve">
<style type="text/css">
	.st0{fill:#FFFFFF;}
	.st1{fill:none;stroke:#FF5B38;stroke-width:0.5;stroke-miterlimit:10;}
	.st2{fill:#FF5B38;stroke:#FF5B38;stroke-width:0.5;stroke-miterlimit:10;}
</style>
<g>
	<g>
		<path class="st0" d="M0,58.5c0.8,0,1.9,0.1,3.2,0.1c1.4,0,2.7,0,4.1,0c1.5,0,3,0,4.5,0c1.4,0,2.5,0,3.1,0c4.5,0,7.8,0.9,10,2.6
			c2.2,1.8,3.3,4,3.3,6.8c0,1.2-0.2,2.4-0.7,3.6c-0.4,1.3-1.2,2.4-2.3,3.5c-1.1,1.1-2.5,1.9-4.4,2.6c-1.9,0.7-4.2,1-7,1H8.9v-1h4.4
			c1.9,0,3.3-0.4,4.3-1.3c1-0.9,1.7-2,2-3.4c0.4-1.4,0.6-2.9,0.6-4.6c0-3-0.4-5.3-1.3-6.8c-0.9-1.5-2.4-2.3-4.6-2.3
			c-1.3,0-2.1,0.3-2.4,0.8c-0.4,0.5-0.6,1.7-0.6,3.3v23.6c0,1.2,0.1,2.2,0.4,2.8c0.3,0.6,0.8,1,1.5,1.2c0.7,0.2,1.8,0.3,3.3,0.3v1.1
			c-1,0-2.3-0.1-3.8-0.1c-1.6,0-3.2,0-5,0c-1.4,0-2.7,0-4,0c-1.3,0-2.5,0.1-3.6,0.1v-1c1-0.1,1.8-0.2,2.3-0.4c0.5-0.2,0.9-0.6,1-1.2
			c0.2-0.6,0.3-1.4,0.3-2.6V63.6c0-1.2-0.1-2.1-0.3-2.6c-0.2-0.6-0.5-0.9-1.1-1.2C1.8,59.6,1,59.5,0,59.5V58.5z"/>
		<path class="st0" d="M36.4,92.9c-1.4,0-2.6-0.3-3.6-0.8c-1-0.5-1.7-1.3-2.1-2.2c-0.4-0.9-0.7-1.9-0.7-3c0-1.4,0.3-2.5,0.9-3.4
			c0.6-0.9,1.4-1.6,2.4-2.1c1-0.5,2-1,3.1-1.3c1.1-0.4,2.2-0.7,3.2-1s1.8-0.7,2.5-1.2c0.6-0.5,0.9-1.1,0.9-1.8v-3.8
			c0-0.8-0.1-1.6-0.4-2.2c-0.3-0.7-0.7-1.2-1.2-1.5c-0.6-0.4-1.3-0.5-2.2-0.5c-0.6,0-1.3,0.1-1.9,0.3c-0.6,0.2-1.2,0.5-1.6,0.9
			c0.9,0.3,1.6,0.8,2.1,1.5c0.5,0.7,0.7,1.4,0.7,2.2c0,1.1-0.4,2-1.1,2.6c-0.8,0.6-1.6,1-2.7,1c-1.2,0-2-0.4-2.6-1.1
			c-0.6-0.7-0.9-1.6-0.9-2.6c0-0.9,0.2-1.7,0.7-2.3c0.5-0.6,1.1-1.2,1.9-1.7c0.9-0.5,2-0.9,3.2-1.2c1.3-0.3,2.6-0.4,4.1-0.4
			c1.5,0,2.8,0.2,4,0.5c1.2,0.3,2.2,0.9,3,1.7c0.7,0.7,1.2,1.6,1.4,2.7c0.2,1.1,0.3,2.4,0.3,4.1V89c0,0.8,0.1,1.4,0.2,1.7
			c0.2,0.3,0.4,0.5,0.8,0.5c0.3,0,0.6-0.1,0.8-0.2c0.3-0.2,0.6-0.4,0.9-0.6l0.5,0.8c-0.7,0.6-1.5,1-2.3,1.3c-0.9,0.3-1.9,0.5-3,0.5
			c-1.2,0-2.1-0.2-2.8-0.5c-0.7-0.3-1.2-0.8-1.5-1.4s-0.5-1.2-0.5-2c-0.8,1.2-1.7,2.2-2.8,2.9C39.3,92.5,38,92.9,36.4,92.9z
			 M39.8,89.8c0.6,0,1.2-0.2,1.8-0.5s1-0.8,1.5-1.5V78c-0.3,0.5-0.7,0.9-1.2,1.3c-0.5,0.4-1.1,0.8-1.6,1.2c-0.6,0.4-1.1,0.8-1.7,1.3
			c-0.5,0.5-1,1.1-1.3,1.8c-0.3,0.7-0.5,1.6-0.5,2.5c0,1.2,0.3,2.2,0.8,2.8C38.2,89.5,38.9,89.8,39.8,89.8z"/>
		<path class="st0" d="M64,101.6c-2,0-3.8-0.2-5.3-0.5c-1.6-0.3-2.8-0.8-3.7-1.5c-0.9-0.7-1.3-1.5-1.3-2.5c0-1,0.4-1.9,1.3-2.7
			c0.9-0.8,2.2-1.4,4-1.9l0.4,0.8c-0.6,0.5-1.1,1-1.3,1.6c-0.3,0.6-0.4,1.1-0.4,1.8c0,1.3,0.6,2.4,1.9,3.1c1.2,0.7,2.9,1.1,5,1.1
			c1.4,0,2.7-0.2,3.9-0.6c1.1-0.4,2-1,2.7-1.7c0.7-0.8,1-1.7,1-2.8c0-1-0.4-1.8-1.1-2.4c-0.7-0.7-2.1-1-4.2-1h-3
			c-1.3,0-2.5-0.1-3.4-0.4c-1-0.3-1.7-0.7-2.3-1.4c-0.5-0.6-0.8-1.4-0.8-2.4c0-1.3,0.5-2.5,1.6-3.6c1.1-1,2.6-2,4.7-2.9l0.5,0.4
			c-0.6,0.4-1.2,0.8-1.7,1.2c-0.5,0.4-0.8,1-0.8,1.7c0,1,0.6,1.5,1.9,1.5h5.2c1.8,0,3.3,0.2,4.7,0.6c1.4,0.4,2.5,1.1,3.3,2
			c0.8,0.9,1.2,2.2,1.2,3.7c0,1.6-0.5,3-1.5,4.4s-2.6,2.4-4.6,3.2C69.8,101.2,67.2,101.6,64,101.6z M64.5,82.3
			c-1.8,0-3.5-0.3-4.9-0.8c-1.4-0.5-2.6-1.4-3.4-2.5c-0.8-1.1-1.2-2.6-1.2-4.3c0-1.8,0.4-3.2,1.2-4.4c0.8-1.1,2-2,3.4-2.5
			c1.4-0.5,3.1-0.8,4.9-0.8s3.5,0.3,4.9,0.8s2.6,1.4,3.4,2.5c0.8,1.1,1.2,2.6,1.2,4.4c0,1.8-0.4,3.2-1.2,4.3c-0.8,1.1-2,2-3.4,2.5
			C67.9,82,66.3,82.3,64.5,82.3z M64.5,81.4c0.9,0,1.5-0.5,2-1.5c0.5-1,0.7-2.7,0.7-5.3c0-2.6-0.2-4.3-0.7-5.3c-0.5-1-1.2-1.5-2-1.5
			c-0.8,0-1.5,0.5-2,1.5c-0.5,1-0.7,2.7-0.7,5.3c0,2.6,0.2,4.3,0.7,5.3C63,80.9,63.6,81.4,64.5,81.4z M72,71.1l-1-0.3
			c0.5-1.3,1.3-2.3,2.3-3.1c1.1-0.8,2.2-1.2,3.5-1.2c1,0,1.8,0.3,2.3,0.8c0.5,0.6,0.8,1.3,0.8,2.2c0,1-0.3,1.7-0.8,2.1
			c-0.5,0.5-1.1,0.7-1.7,0.7c-0.5,0-1.1-0.2-1.5-0.6c-0.5-0.4-0.7-1-0.8-1.8c-0.1-0.8,0.2-1.8,0.8-3.1l0.3,0.3
			c-1.2,0.4-2.1,1-2.7,1.6C73,69.3,72.4,70.1,72,71.1z"/>
		<path class="st0" d="M92.9,67c2.8,0,5,0.8,6.6,2.5c1.6,1.7,2.4,4.4,2.4,8.2H86.1L86,76.8h9.9c0-1.6-0.1-3-0.3-4.4S95,70,94.5,69.2
			C94,68.4,93.4,68,92.6,68c-1.1,0-2.1,0.7-2.9,2.1c-0.8,1.4-1.3,3.8-1.4,7l0.1,0.3c0,0.4-0.1,0.8-0.1,1.2c0,0.4,0,0.8,0,1.3
			c0,2.2,0.3,4,0.9,5.4c0.6,1.4,1.4,2.4,2.4,3s1.9,0.9,2.9,0.9c0.7,0,1.4-0.1,2.1-0.3c0.7-0.2,1.4-0.6,2.2-1.2
			c0.7-0.6,1.4-1.4,2.1-2.4l0.9,0.3c-0.4,1.2-1,2.4-1.8,3.6s-1.9,2.1-3.2,2.8c-1.3,0.7-2.8,1.1-4.6,1.1c-2.2,0-4.1-0.5-5.8-1.4
			c-1.7-0.9-3-2.3-3.9-4.2c-0.9-1.9-1.4-4.3-1.4-7.2c0-3,0.5-5.5,1.5-7.5c1-2,2.4-3.5,4.2-4.4C88.6,67.5,90.6,67,92.9,67z"/>
		<path class="st0" d="M146.2,58.6c-0.8,0-1.5,0-2.3,0c-0.9,0-1.8,0-2.8,0c-1,0-1.8-0.1-2.4-0.1v1c1.4,0.1,2.4,0.4,3.1,0.8
			c0.7,0.4,1.1,1.1,1.3,2c0.2,0.9,0.3,2.3,0.3,4.1v15.1l-16.2-20h-6.6v-2.8c-0.7,0-1.5,0-2.2,0c-0.8,0-1.4-0.1-1.9-0.1v1
			c1,0,1.8,0.2,2.3,0.4c0.5,0.2,0.9,0.6,1.1,1.2c0.2,0.6,0.3,1.4,0.3,2.6v21.6c0,1.5-0.1,2.8-0.3,3.6c-0.2,0.9-0.5,1.5-1,1.9
			c-0.5,0.4-1.3,0.7-2.3,0.8v1c0.5-0.1,1.1-0.1,1.9-0.1c0.8,0,1.5,0,2.3,0c0.9,0,1.8,0,2.8,0c1,0,1.8,0.1,2.4,0.1v-1
			c-1.4-0.2-2.4-0.4-3.1-0.8c-0.7-0.4-1.1-1.1-1.3-2s-0.3-2.3-0.3-4.1V66.2L142,92.6c0.4,0,0.9,0,1.3,0s0.8,0,1.2,0V65.8
			c0-1.6,0.1-2.8,0.3-3.7c0.2-0.9,0.5-1.5,1-1.9c0.5-0.4,1.3-0.7,2.3-0.8v-1C147.6,58.5,146.9,58.5,146.2,58.6z"/>
		<path class="st0" d="M162.1,67c2.3,0,4.4,0.4,6.2,1.3c1.8,0.9,3.1,2.3,4.1,4.2c1,1.9,1.5,4.5,1.5,7.6s-0.5,5.7-1.5,7.6
			c-1,1.9-2.4,3.3-4.1,4.2c-1.8,0.9-3.8,1.3-6.2,1.3c-2.3,0-4.3-0.4-6.1-1.3c-1.8-0.9-3.2-2.3-4.2-4.2c-1-1.9-1.5-4.4-1.5-7.6
			s0.5-5.7,1.5-7.6s2.4-3.3,4.2-4.2C157.8,67.4,159.8,67,162.1,67z M162.1,68c-1.3,0-2.4,1-3.2,2.9c-0.9,1.9-1.3,5-1.3,9.3
			c0,4.3,0.4,7.4,1.3,9.3c0.9,1.9,1.9,2.8,3.2,2.8c1.3,0,2.4-0.9,3.2-2.8c0.8-1.9,1.3-5,1.3-9.3c0-4.3-0.4-7.4-1.3-9.3
			C164.5,68.9,163.4,68,162.1,68z"/>
		<path class="st0" d="M186.6,59.8v7.9h5.7v1h-5.7v19.4c0,1,0.2,1.6,0.5,2c0.4,0.4,0.9,0.6,1.6,0.6c0.6,0,1.2-0.2,1.7-0.6
			c0.6-0.4,1.1-1.2,1.5-2.2l0.8,0.4c-0.5,1.4-1.3,2.6-2.3,3.6c-1,0.9-2.5,1.4-4.3,1.4c-1.1,0-2-0.1-2.8-0.4c-0.8-0.3-1.5-0.7-2-1.2
			c-0.7-0.7-1.2-1.6-1.4-2.6c-0.2-1-0.3-2.4-0.3-4.1V68.6h-4v-1h4v-6.3c1.3,0,2.6-0.1,3.7-0.4C184.5,60.7,185.6,60.3,186.6,59.8z"/>
		<path class="st0" d="M224.8,78.2c0-1,0-1.8,0-2.6s0-1.7,0-2.7c0-1,0-2.3,0.2-4.2h-1.1c-0.1,0.6-0.3,1.3-0.6,2.1
			c-0.3,0.7-0.6,1.4-1.1,2.1c-0.5,0.7-1,1.2-1.7,1.6c-0.7,0.4-1.5,0.6-2.4,0.6v1c1.3,0,2.3,0.3,3.1,0.9c0.8,0.6,1.4,1.4,1.8,2.3
			c0.4,1,0.7,2,0.9,3.1h1.1C224.9,80.6,224.8,79.2,224.8,78.2z M214.9,75.1v1h8.8v-1H214.9z M230.5,67.8c0-0.6,0-1.3,0-2
			c0-0.7,0-1.8,0.1-3.1c0-0.4,0-0.8,0-1.2h-3.5v-2.9c-0.4,0-0.9,0-1.3,0c-1.9,0-3.5,0-5,0h-3.1c-1.2,0-2.6,0-4,0c-1.4,0-2.9,0-4.4,0
			c-1.5,0-2.9,0-4.2-0.1v1c1,0,1.8,0.2,2.3,0.4c0.5,0.2,0.9,0.6,1.1,1.2s0.3,1.4,0.3,2.6v23.8c0,1.2-0.1,2-0.3,2.6
			c-0.2,0.6-0.5,1-1,1.2c-0.5,0.2-1.3,0.3-2.3,0.4v1c1.1,0,2.2-0.1,3.6-0.1c1.3,0,2.7,0,4,0c1.7,0,3.4,0,5,0c1.6,0,2.9,0.1,3.8,0.1
			v-1.1c-1.4,0-2.5-0.1-3.3-0.3c-0.7-0.2-1.2-0.6-1.5-1.2c-0.2-0.6-0.4-1.5-0.4-2.8V63c0-1,0.1-1.7,0.2-2.2c0.2-0.5,0.5-0.8,1-1
			c0.5-0.2,1.2-0.2,2.1-0.2h1.6c1.5,0,2.8,0.3,3.8,0.9c1.1,0.6,2,1.6,2.7,3.1c0.7,1.4,1.3,3.4,1.7,5.9h1.1
			C230.6,69,230.6,68.5,230.5,67.8z"/>
		<path class="st0" d="M244.3,67c2.3,0,4.4,0.4,6.2,1.3c1.8,0.9,3.1,2.3,4.1,4.2c1,1.9,1.5,4.5,1.5,7.6s-0.5,5.7-1.5,7.6
			c-1,1.9-2.4,3.3-4.1,4.2c-1.8,0.9-3.8,1.3-6.2,1.3c-2.3,0-4.3-0.4-6.1-1.3c-1.8-0.9-3.2-2.3-4.2-4.2c-1-1.9-1.5-4.4-1.5-7.6
			s0.5-5.7,1.5-7.6s2.4-3.3,4.2-4.2C240,67.4,242,67,244.3,67z M244.3,68c-1.3,0-2.4,1-3.2,2.9c-0.9,1.9-1.3,5-1.3,9.3
			c0,4.3,0.4,7.4,1.3,9.3c0.9,1.9,1.9,2.8,3.2,2.8c1.3,0,2.4-0.9,3.2-2.8c0.8-1.9,1.3-5,1.3-9.3c0-4.3-0.4-7.4-1.3-9.3
			C246.7,68.9,245.6,68,244.3,68z"/>
		<path class="st0" d="M283,67.1v20.1c0,1.4,0.2,2.5,0.7,3.2c0.4,0.7,1.3,1,2.4,1v1c-1-0.1-2-0.1-3-0.1c-1.3,0-2.6,0-3.8,0.1
			c-1.2,0.1-2.2,0.3-3.3,0.5v-4.3c-0.8,1.6-1.8,2.7-3.2,3.4c-1.4,0.7-2.9,1-4.5,1c-1.3,0-2.4-0.2-3.3-0.5c-0.8-0.4-1.5-0.8-2-1.3
			c-0.5-0.6-0.9-1.4-1.2-2.4c-0.2-1-0.3-2.3-0.3-3.8V72.9c0-1.4-0.2-2.5-0.6-3.2c-0.4-0.7-1.2-1-2.4-1v-1c1,0.1,2,0.1,3,0.1
			c1.3,0,2.6-0.1,3.8-0.2c1.2-0.1,2.3-0.3,3.2-0.5v19.9c0,0.8,0.1,1.5,0.2,2.1c0.1,0.6,0.4,1.1,0.8,1.4s1,0.5,1.8,0.5
			c0.9,0,1.6-0.2,2.3-0.7c0.7-0.5,1.2-1.1,1.7-2c0.4-0.8,0.6-1.8,0.6-2.9V72.9c0-1.4-0.2-2.5-0.6-3.2c-0.4-0.7-1.2-1-2.4-1v-1
			c1,0.1,2,0.1,3,0.1c1.3,0,2.6-0.1,3.8-0.2C280.9,67.5,282,67.4,283,67.1z"/>
		<path class="st0" d="M306.1,67c1.3,0,2.4,0.2,3.3,0.5c0.8,0.3,1.5,0.8,2,1.4c0.5,0.6,0.9,1.4,1.1,2.4c0.2,1,0.4,2.3,0.4,3.9v12.9
			c0,1.3,0.2,2.3,0.7,2.7c0.5,0.5,1.3,0.7,2.4,0.7v1c-0.6,0-1.5-0.1-2.7-0.1c-1.2,0-2.4-0.1-3.6-0.1c-1.2,0-2.4,0-3.6,0.1
			c-1.2,0-2.1,0.1-2.7,0.1v-1c1,0,1.6-0.2,2-0.7s0.6-1.4,0.6-2.7v-15c0-0.8-0.1-1.5-0.2-2.1c-0.2-0.6-0.5-1.1-0.9-1.4
			c-0.4-0.3-1-0.5-1.9-0.5c-0.9,0-1.7,0.2-2.4,0.7c-0.7,0.5-1.3,1.1-1.7,2c-0.4,0.8-0.6,1.8-0.6,2.9v13.4c0,1.3,0.2,2.3,0.6,2.7
			c0.4,0.5,1.1,0.7,2,0.7v1c-0.6,0-1.4-0.1-2.5-0.1c-1.1,0-2.3-0.1-3.4-0.1c-1.2,0-2.5,0-3.8,0.1c-1.3,0-2.2,0.1-2.9,0.1v-1
			c1.1,0,1.9-0.2,2.4-0.7c0.5-0.5,0.7-1.4,0.7-2.7V72.9c0-1.4-0.2-2.5-0.6-3.2c-0.4-0.7-1.2-1-2.4-1v-1c1,0.1,2,0.1,3,0.1
			c1.3,0,2.6-0.1,3.8-0.2c1.2-0.1,2.3-0.3,3.2-0.5v4.3c0.8-1.6,1.9-2.8,3.3-3.5C302.8,67.3,304.4,67,306.1,67z"/>
		<path class="st0" d="M329.1,67c1.4,0,2.7,0.2,3.7,0.7c1.1,0.5,1.9,1.2,2.5,2.3l-0.6,0.5c-0.4-0.8-1-1.3-1.7-1.7
			c-0.7-0.3-1.4-0.5-2.2-0.5c-1.6,0-2.9,1-3.9,2.9c-1,1.9-1.4,4.8-1.4,8.8c0,2.7,0.2,4.9,0.6,6.5c0.4,1.6,0.9,2.8,1.6,3.5
			c0.7,0.7,1.5,1.1,2.4,1.1c1.1,0,2.1-0.4,2.9-1.3c0.9-0.9,1.3-2,1.4-3.5l0.2,1.7c-0.5,1.7-1.3,3-2.3,3.9c-1.1,0.9-2.5,1.3-4.2,1.3
			c-1.9,0-3.6-0.5-5.1-1.4c-1.5-0.9-2.7-2.4-3.5-4.3c-0.8-1.9-1.2-4.4-1.2-7.5c0-2.9,0.5-5.3,1.4-7.2c0.9-1.9,2.2-3.3,3.8-4.3
			C325.2,67.5,327.1,67,329.1,67z M341.4,54.9v32.4c0,1.4,0.2,2.5,0.7,3.2c0.4,0.7,1.2,1,2.4,1v1c-1-0.1-2-0.1-3-0.1
			c-1.3,0-2.6,0-3.8,0.1c-1.2,0.1-2.3,0.3-3.2,0.5V60.7c0-1.4-0.2-2.5-0.6-3.2c-0.4-0.7-1.2-1-2.4-1v-1c1,0.1,2,0.1,3,0.1
			c1.3,0,2.6-0.1,3.8-0.2C339.3,55.3,340.4,55.1,341.4,54.9z"/>
	</g>
	<path class="st1" d="M129.8,0l-9.2,12.9v45.7h0c0.8,0,1.5,0,2.2,0c0.7,0,1.4-0.1,1.9-0.1l2.4,3h4V0H129.8z M140.1,40.3
		c-0.1-2-0.1-4.9-0.1-8.5h-1.9c-0.2,1.5-0.7,2.6-1.4,3.2c-0.7,0.6-2.3,0.9-4.8,0.9H104l16.6-21.3l9.5-12.2L129.8,0L95.7,43.3v1.9
		h33.4c0.7,0,1.4,0,2.1,0c0.9,0,1.8,0,2.7,0.1c1.6,0.1,3,0.1,4.1,0.1c1.2,0,2,0.1,2.4,0.2C140.3,44.1,140.2,42.3,140.1,40.3z"/>
	<path class="st2" d="M127.2,61.5h-6.6v-2.8h0c0.8,0,1.5,0,2.2,0c0.7,0,1.4-0.1,1.9-0.1L127.2,61.5z"/>
	<path class="st1" d="M173.2,0c4.9,0,9.2,1,12.9,3c3.7,2,6.6,4.8,8.8,8.4c2.1,3.6,3.2,7.9,3.2,12.8c0,4.9-1.1,9.3-3.2,13.1
		c-2.2,3.9-5.2,6.9-9.1,9.2c-3.9,2.3-8.4,3.4-13.6,3.4c-4.8,0-9-1-12.8-3c-3.7-2-6.7-4.8-8.9-8.5c-2.2-3.6-3.2-7.9-3.2-12.8
		c0-4.8,1.1-9.2,3.2-13c2.1-3.9,5.2-6.9,9.1-9.2C163.5,1.1,168,0,173.2,0z M172.4,1.7c-3.3,0-6,2.1-8.1,6.3
		c-2.1,4.2-3.2,10-3.2,17.4c0,5.5,0.5,9.9,1.6,13.3c1.1,3.4,2.5,5.8,4.3,7.3c1.8,1.5,3.8,2.3,5.9,2.3c3.3,0,6-2.1,8.1-6.3
		c2.1-4.2,3.2-10,3.2-17.5c0-5.5-0.5-9.9-1.6-13.3c-1.1-3.4-2.5-5.8-4.3-7.3C176.5,2.4,174.5,1.7,172.4,1.7z"/>
	<path class="st1" d="M236.3,0l-9.2,12.9v45.7c1.3,0,2.6,0,3.7-0.1c-0.1,1-0.2,2-0.2,3h7.2V0H236.3z M246.6,40.3
		c-0.1-2-0.1-4.9-0.1-8.5h-1.9c-0.2,1.5-0.7,2.6-1.4,3.2c-0.7,0.6-2.3,0.9-4.8,0.9h-27.9l16.6-21.3l9.5-12.2L236.3,0l-34.1,43.3v1.9
		h33.4c0.7,0,1.4,0,2.2,0c0.9,0,1.8,0,2.6,0.1c1.6,0.1,3,0.1,4.1,0.1c1.2,0,2,0.1,2.4,0.2C246.8,44.1,246.7,42.3,246.6,40.3z"/>
	<path class="st2" d="M230.8,58.5c-0.1,1-0.2,2-0.2,3h-3.5v-2.9C228.5,58.6,229.7,58.5,230.8,58.5z"/>
</g>
</svg>
